<svg xmlns="http://www.w3.org/2000/svg" xmlns:xlink="http://www.w3.org/1999/xlink" xmlns:serif="http://www.serif.com/" viewBox="0 0 32 40" version="1.1" xml:space="preserve" style="" x="0px" y="0px" fill-rule="evenodd" clip-rule="evenodd" stroke-linejoin="round" stroke-miterlimit="2"><g transform="matrix(1,0,0,1,-342.872,-104.63)"><path d="M356.166,122.327C356.278,121.773 356.399,121.172 356.498,120.677C356.699,119.671 356.478,118.755 356.099,118.126C355.808,117.644 355.418,117.326 355.041,117.206C354.589,117.062 354.213,117.079 353.904,117.182C353.431,117.34 353.099,117.709 352.901,118.141C352.675,118.635 351.562,123.037 351.425,123.563C351.134,124.681 351.077,129.607 351.077,129.607C351.075,129.883 351.297,130.109 351.573,130.112C351.848,130.114 352.075,129.892 352.077,129.617C352.077,129.617 352.113,124.888 352.393,123.815C352.526,123.305 353.591,119.036 353.81,118.557C353.894,118.373 354.018,118.198 354.22,118.131C354.361,118.084 354.532,118.094 354.738,118.159C354.926,118.219 355.098,118.402 355.243,118.642C355.516,119.095 355.662,119.757 355.517,120.481C355.269,121.723 354.881,123.634 354.851,123.783C354.802,124.002 354.905,124.234 355.115,124.339C355.115,124.339 357.744,125.678 357.131,128.876C357.079,129.147 357.257,129.409 357.528,129.461C357.799,129.513 358.061,129.335 358.113,129.064C358.673,126.141 357.031,124.479 356.122,123.804C356.922,122.977 359.309,120.539 362.989,117.04C363.154,116.883 363.367,116.783 363.596,116.783C363.82,116.783 364.035,116.872 364.194,117.031L364.194,117.032C364.353,117.19 364.442,117.405 364.442,117.629C364.442,117.868 364.318,118.077 364.164,118.26C363.558,118.983 361.148,121.274 361.148,121.274C361.104,121.315 361.07,121.362 361.045,121.413C360.962,121.472 360.883,121.539 360.808,121.613L359.085,123.336C358.365,124.056 358.365,125.224 359.085,125.944L359.087,125.946C359.371,126.23 359.724,126.402 360.092,126.462C359.915,127.084 360.071,127.782 360.561,128.273L360.563,128.275C360.809,128.52 361.107,128.682 361.422,128.76C361.11,129.441 361.234,130.272 361.795,130.832L361.796,130.834C362.016,131.054 362.277,131.206 362.554,131.292C362.013,131.855 361.645,132.244 361.367,132.462C360.042,133.503 356.504,134.138 356.504,134.138C356.233,134.189 356.054,134.45 356.104,134.721C356.154,134.993 356.416,135.172 356.687,135.122C356.687,135.122 360.537,134.385 361.985,133.249C362.373,132.943 363.652,131.604 364.594,130.645L366.127,129.111C366.847,128.391 366.847,127.223 366.127,126.503L366.125,126.502C365.88,126.256 365.582,126.094 365.267,126.016C365.579,125.335 365.454,124.504 364.894,123.944L364.892,123.942C364.608,123.658 364.255,123.486 363.887,123.426C364.065,122.803 363.908,122.105 363.418,121.615L363.416,121.613C363.207,121.404 362.961,121.256 362.699,121.169C363.475,120.416 364.55,119.357 364.931,118.902C365.236,118.538 365.442,118.105 365.442,117.629C365.442,117.14 365.247,116.671 364.901,116.325C364.901,116.324 364.901,116.324 364.901,116.324C364.555,115.978 364.085,115.783 363.596,115.783C363.11,115.783 362.652,115.981 362.3,116.315C359.422,119.052 357.331,121.142 356.166,122.327ZM363.038,128.395L362.502,128.932C362.172,129.261 362.172,129.796 362.502,130.125C362.502,130.125 362.503,130.127 362.503,130.127C362.833,130.457 363.367,130.457 363.697,130.127L365.42,128.404C365.75,128.074 365.75,127.54 365.42,127.21C365.42,127.21 365.418,127.209 365.418,127.209C365.118,126.908 364.647,126.882 364.316,127.129L363.171,128.275C363.129,128.316 363.085,128.356 363.04,128.394L363.038,128.395ZM363.651,126.381L364.187,125.844C364.516,125.515 364.516,124.98 364.187,124.651C364.187,124.651 364.185,124.649 364.185,124.649C363.855,124.319 363.321,124.319 362.992,124.649C362.992,124.649 361.269,126.372 361.268,126.372C360.939,126.702 360.939,127.236 361.268,127.566C361.268,127.566 361.27,127.567 361.27,127.567C361.571,127.868 362.042,127.894 362.372,127.647L363.518,126.502C363.56,126.459 363.605,126.418 363.651,126.381ZM362.711,123.516L360.988,125.239C360.658,125.568 360.124,125.568 359.794,125.239C359.794,125.239 359.792,125.237 359.792,125.237C359.463,124.907 359.463,124.373 359.792,124.043C359.792,124.043 361.515,122.32 361.515,122.32C361.845,121.991 362.379,121.991 362.709,122.32C362.709,122.32 362.711,122.322 362.711,122.322C363.04,122.652 363.04,123.186 362.711,123.516ZM357.865,106.13C354.906,106.13 352.503,108.533 352.503,111.492C352.503,114.452 354.906,116.855 357.865,116.855C360.825,116.855 363.228,114.452 363.228,111.492C363.228,108.533 360.825,106.13 357.865,106.13ZM357.865,107.13C360.273,107.13 362.228,109.085 362.228,111.492C362.228,113.9 360.273,115.855 357.865,115.855C355.458,115.855 353.503,113.9 353.503,111.492C353.503,109.085 355.458,107.13 357.865,107.13ZM357.365,108.778C356.517,108.921 355.892,109.61 355.892,110.409L355.892,110.409C355.892,111.301 356.676,112.054 357.677,112.054L358.084,112.054C358.292,112.054 358.492,112.123 358.639,112.254C358.764,112.365 358.839,112.513 358.839,112.67L358.839,112.672C358.839,112.999 358.514,113.233 358.146,113.233L357.684,113.233C357.466,113.233 357.257,113.16 357.103,113.023C357.048,112.974 357.002,112.919 356.967,112.858C356.83,112.619 356.524,112.537 356.285,112.674C356.045,112.812 355.963,113.118 356.101,113.357C356.188,113.508 356.301,113.648 356.438,113.77C356.693,113.997 357.016,114.149 357.365,114.207L357.365,114.369C357.365,114.645 357.589,114.869 357.865,114.869C358.141,114.869 358.365,114.645 358.365,114.369L358.365,114.22C359.208,114.121 359.839,113.451 359.839,112.672C359.839,112.671 359.839,112.671 359.839,112.67C359.839,112.235 359.65,111.815 359.304,111.507C358.98,111.219 358.542,111.054 358.084,111.054C358.084,111.054 357.677,111.054 357.677,111.054C357.258,111.054 356.892,110.782 356.892,110.409L356.892,110.409C356.892,110.028 357.265,109.751 357.692,109.751C357.692,109.751 357.971,109.751 357.971,109.751C358.335,109.751 358.656,109.937 358.784,110.22C358.898,110.471 359.195,110.583 359.446,110.469C359.698,110.355 359.809,110.058 359.695,109.807C359.466,109.302 358.973,108.91 358.365,108.79L358.365,108.615C358.365,108.339 358.141,108.115 357.865,108.115C357.589,108.115 357.365,108.339 357.365,108.615L357.365,108.778Z"/></g><text x="0" y="47" fill="#000000" font-size="5px" font-weight="bold" font-family="'Helvetica Neue', Helvetica, Arial-Unicode, Arial, Sans-serif">Created by rendicon</text><text x="0" y="52" fill="#000000" font-size="5px" font-weight="bold" font-family="'Helvetica Neue', Helvetica, Arial-Unicode, Arial, Sans-serif">from the Noun Project</text></svg>