<svg xmlns="http://www.w3.org/2000/svg" version="1.1" viewBox="-5.0 -10.0 110.0 135.0">
 <path d="m83.672 77.562c-0.29688-2.6875-1.5781-5.1719-3.5781-6.9688-0.48438-0.42188-1-0.79688-1.5312-1.1406 0.40625-0.40625 0.82812-0.82812 1.2188-1.25 6.9844-7.5312 10.844-17.328 10.844-27.562s-3.8438-20.031-10.844-27.562c-7.6875-8.3125-18.547-13.078-29.781-13.078s-22.094 4.7656-29.781 13.062c-6.9844 7.5312-10.844 17.328-10.844 27.562s3.8438 20.031 10.844 27.562c0.40625 0.4375 0.82812 0.85938 1.2344 1.2656-2.8125 1.75-4.7656 4.7188-5.125 8.1094l-0.65625 5.9219c-0.1875 1.625 0.34375 3.2656 1.4375 4.5s2.6719 1.9375 4.3281 1.9375h11.297l-0.10938 0.95312c-0.26562 2.3281 0.46875 4.6562 2.0312 6.3906 1.5625 1.75 3.7969 2.75 6.1562 2.75h18.406c2.3438 0 4.5938-1 6.1562-2.75s2.2969-4.0781 2.0312-6.3906l-0.10938-0.95312h11.297c1.6562 0 3.2344-0.70312 4.3281-1.9375 1.0938-1.2188 1.6094-2.8594 1.4375-4.5l-0.65625-5.9219zm-12.688-9.6406c-0.17188 0.03125-0.34375 0.078125-0.51562 0.10938-0.40625 0.09375-0.8125 0.1875-1.2031 0.32812-0.17188 0.0625-0.34375 0.10938-0.51562 0.1875-0.4375 0.17188-0.84375 0.35938-1.25 0.59375-0.09375 0.046875-0.20312 0.09375-0.29688 0.15625-0.48438 0.28125-0.95312 0.60938-1.3906 0.96875-0.10938 0.09375-0.21875 0.1875-0.32812 0.29688-0.3125 0.28125-0.625 0.57812-0.90625 0.89062-0.125 0.14062-0.25 0.28125-0.35938 0.42188-0.26562 0.32812-0.5 0.65625-0.71875 1.0156-0.09375 0.14062-0.17188 0.26562-0.26562 0.40625-0.03125 0.046875-0.0625 0.09375-0.09375 0.15625-0.21875-0.28125-0.45312-0.54688-0.67188-0.8125-0.10938-0.125-0.20312-0.25-0.3125-0.35938-0.10938-0.125-0.23438-0.23438-0.35938-0.35938 1.4062-2.6094 2.625-5.7031 3.6094-9.1406 1.1562 2.9219 4 5 7.3281 5 0.375 0 0.75-0.03125 1.125-0.09375 0.10938 0 0.21875-0.03125 0.3125-0.0625 0.28125-0.046875 0.54688-0.10938 0.8125-0.1875 0.09375-0.03125 0.1875-0.046875 0.29688-0.078125 0.32812-0.10938 0.65625-0.23438 0.96875-0.39062 0.0625 0.0625 0.14062 0.14062 0.21875 0.20312-0.34375 0.34375-0.67188 0.67188-1.0156 0.98438-0.1875-0.046875-0.39062-0.078125-0.59375-0.10938-0.15625-0.03125-0.3125-0.0625-0.45312-0.09375-0.54688-0.078125-1.0938-0.14062-1.6562-0.14062-0.59375 0-1.1875 0.0625-1.7656 0.15625zm-12.594 1.25c-0.39062-0.23438-0.78125-0.45312-1.1875-0.64062-0.09375-0.046875-0.20312-0.09375-0.29688-0.125-0.3125-0.14062-0.64062-0.28125-0.95312-0.40625-0.15625-0.0625-0.3125-0.10938-0.46875-0.17188-0.28125-0.09375-0.54688-0.1875-0.82812-0.26562-0.17188-0.046875-0.34375-0.09375-0.51562-0.14062-0.28125-0.078125-0.5625-0.14062-0.84375-0.1875-0.17188-0.03125-0.34375-0.0625-0.51562-0.09375-0.3125-0.046875-0.60938-0.09375-0.92188-0.125-0.15625-0.015625-0.29688-0.03125-0.45312-0.046875-0.45312-0.03125-0.92188-0.0625-1.3906-0.0625s-0.92188 0.03125-1.3906 0.0625c-0.14062 0-0.29688 0.03125-0.4375 0.046875-0.3125 0.03125-0.625 0.078125-0.9375 0.125-0.17188 0.03125-0.34375 0.0625-0.5 0.09375-0.28125 0.0625-0.5625 0.125-0.85938 0.20312-0.17188 0.046875-0.34375 0.09375-0.51562 0.14062-0.28125 0.078125-0.5625 0.17188-0.84375 0.28125-0.15625 0.0625-0.3125 0.10938-0.45312 0.17188-0.34375 0.14062-0.67188 0.28125-1.0156 0.4375-0.078125 0.046875-0.17188 0.078125-0.25 0.10938-0.40625 0.20312-0.79688 0.42188-1.1875 0.64062-0.14062 0.078125-0.26562 0.17188-0.40625 0.26562-0.1875 0.125-0.39062 0.23438-0.57812 0.375-1.5938-3.1094-2.8906-6.9375-3.8594-11.219 0.34375-0.125 0.67188-0.26562 1.0156-0.39062 0.21875-0.078125 0.4375-0.14062 0.65625-0.21875 0.26562-0.09375 0.54688-0.15625 0.82812-0.25 0.015625 0.046875 0.046875 0.09375 0.078125 0.15625 0.09375 0.21875 0.20312 0.42188 0.3125 0.625 0.17188 0.34375 0.34375 0.6875 0.53125 1 0.125 0.21875 0.28125 0.40625 0.42188 0.60938 0.20312 0.29688 0.42188 0.57812 0.65625 0.84375l0.51562 0.5625c0.25 0.25 0.5 0.48438 0.76562 0.70312 0.1875 0.15625 0.39062 0.32812 0.59375 0.46875 0.28125 0.20312 0.57812 0.39062 0.875 0.57812 0.21875 0.125 0.42188 0.26562 0.65625 0.375 0.32812 0.17188 0.65625 0.3125 1 0.4375 0.21875 0.09375 0.4375 0.1875 0.67188 0.26562 0.39062 0.125 0.78125 0.21875 1.1875 0.3125 0.20312 0.046875 0.39062 0.10938 0.59375 0.14062 0.60938 0.09375 1.2344 0.15625 1.875 0.15625s1.2656-0.0625 1.875-0.15625c0.20312-0.03125 0.40625-0.09375 0.60938-0.14062 0.39062-0.09375 0.79688-0.17188 1.1719-0.29688 0.23438-0.078125 0.46875-0.1875 0.70312-0.28125 0.32812-0.125 0.64062-0.26562 0.95312-0.42188 0.25-0.125 0.48438-0.26562 0.71875-0.40625 0.26562-0.17188 0.53125-0.32812 0.79688-0.51562 0.23438-0.17188 0.46875-0.35938 0.6875-0.54688s0.4375-0.39062 0.64062-0.59375c0.21875-0.21875 0.4375-0.45312 0.64062-0.6875 0.17188-0.20312 0.34375-0.42188 0.51562-0.65625 0.1875-0.26562 0.375-0.51562 0.54688-0.79688 0.15625-0.25 0.28125-0.5 0.40625-0.75 0.14062-0.28125 0.29688-0.54688 0.40625-0.84375 0.015625-0.046875 0.046875-0.078125 0.0625-0.125 0.28125 0.078125 0.5625 0.15625 0.82812 0.25 0.21875 0.078125 0.45312 0.14062 0.67188 0.21875 0.34375 0.125 0.67188 0.25 1 0.39062-0.96875 4.2656-2.2656 8.1094-3.8594 11.203-0.21875-0.15625-0.4375-0.28125-0.65625-0.42188-0.10938-0.0625-0.21875-0.14062-0.32812-0.21875zm-21.438 4.1406s-0.078125 0.078125-0.10938 0.125c0 0 0-0.015625-0.015625-0.03125-0.1875-0.34375-0.42188-0.64062-0.64062-0.95312-0.125-0.1875-0.23438-0.375-0.375-0.54688-0.375-0.46875-0.79688-0.92188-1.2344-1.3125-0.34375-0.3125-0.71875-0.59375-1.0938-0.85938l-0.14062-0.09375c-1.7969-1.2031-3.9062-1.875-6.0781-1.875-0.21875 0-0.45312 0.03125-0.67188 0.046875h-0.1875c-0.35938 0.03125-0.73438 0.078125-1.0938 0.14062-0.14062 0.03125-0.28125 0.046875-0.4375 0.078125-0.10938 0.03125-0.21875 0.03125-0.3125 0.0625-0.34375-0.3125-0.67188-0.64062-1.0156-0.98438 0.0625-0.0625 0.14062-0.14062 0.21875-0.20312 0.3125 0.15625 0.64062 0.28125 0.96875 0.39062 0.09375 0.03125 0.1875 0.046875 0.28125 0.078125 0.26562 0.078125 0.54688 0.14062 0.82812 0.20312 0.10938 0.015625 0.20312 0.046875 0.3125 0.046875 0.375 0.046875 0.73438 0.09375 1.125 0.09375 3.3281 0 6.1719-2.0781 7.3281-5 0.98438 3.4375 2.2031 6.5312 3.6094 9.1406l-0.28125 0.28125c-0.34375 0.375-0.65625 0.75-0.96875 1.1562zm-15.531-56.906c0.25 0.25 0.5 0.48438 0.75 0.71875l0.015625 0.015625c0.26562 0.28125 0.54688 0.54688 0.76562 0.71875 0.03125 0.03125 0.0625 0.046875 0.09375 0.078125 0.64062 0.5625 1.2969 1.125 1.9844 1.6406 0.32812 0.26562 0.67188 0.51562 1.0156 0.76562 0.45312 0.32812 0.92188 0.65625 1.3906 0.96875 0.20312 0.14062 0.40625 0.29688 0.60938 0.4375 0.32812 0.20312 0.65625 0.42188 0.92188 0.57812 0.79688 0.5 1.5938 0.95312 2.3125 1.3125 0.26562 0.15625 0.53125 0.28125 0.79688 0.40625 0.14062 0.078125 0.3125 0.17188 0.5 0.25 0.1875 0.09375 0.375 0.17188 0.5625 0.25-0.875 4.5781-1.3594 9.4375-1.4375 14.5h-19.172c0.34375-8.3438 3.4219-16.281 8.8438-22.656zm55.5 1.5625s0.078125-0.0625 0.125-0.09375c0.26562-0.23438 0.53125-0.46875 0.71875-0.65625 0.10938-0.09375 0.20312-0.20312 0.3125-0.29688 0.14062-0.14062 0.29688-0.28125 0.4375-0.42188 0 0 0.015625 0 0.03125-0.03125 0.015625-0.015625 0.03125-0.03125 0.0625-0.046875 5.4219 6.375 8.5 14.312 8.8438 22.656h-19.172c-0.078125-5.0625-0.5625-9.9375-1.4375-14.5 0.1875-0.078125 0.375-0.15625 0.5625-0.25 0.20312-0.078125 0.375-0.17188 0.5-0.25 0.26562-0.125 0.51562-0.25 0.70312-0.35938 0.79688-0.39062 1.6094-0.84375 2.3438-1.3125 0.34375-0.1875 0.67188-0.40625 1.0156-0.625 0.20312-0.14062 0.40625-0.29688 0.60938-0.42188 0.46875-0.3125 0.92188-0.625 1.375-0.96875 0.34375-0.25 0.6875-0.5 1.0312-0.76562 0.67188-0.53125 1.3281-1.0625 1.9688-1.6406zm-14.453 37.031c-0.3125-0.10938-0.625-0.21875-0.95312-0.3125 0.046875-0.40625 0.0625-0.84375 0.0625-1.2812 0-5.4062-3.75-9.9531-8.7812-11.219h12.312c-0.078125 4.6406-0.5 9.0781-1.2656 13.281-0.20312-0.078125-0.40625-0.14062-0.60938-0.21875-0.25-0.09375-0.51562-0.17188-0.78125-0.25zm-25.703 0.25c-0.21875 0.078125-0.42188 0.14062-0.625 0.21875-0.76562-4.2031-1.1875-8.6406-1.2656-13.281h12.312c-5.0312 1.2656-8.7812 5.8125-8.7812 11.219 0 0.4375 0.015625 0.875 0.0625 1.2812-0.32812 0.09375-0.64062 0.20312-0.95312 0.3125-0.25 0.078125-0.5 0.15625-0.75 0.25zm-12.328 8.4531c-1.25-0.89062-1.9844-2.3438-1.9844-3.875 0-2.6406 2.1562-4.7812 4.7969-4.7812 0.28125 0 0.54688 0.015625 0.8125 0.0625 1.8594 0.3125 3.375 1.7031 3.8281 3.5938 0.09375 0.34375 0.14062 0.73438 0.14062 1.125 0 2.6406-2.1406 4.7812-4.7812 4.7812-1.0312 0-1.9844-0.3125-2.8125-0.90625zm11.703-37.922s0.03125 0 0.046875 0.015625c0.54688 0.1875 1.1094 0.39062 1.5781 0.53125 0.25 0.09375 0.5 0.17188 0.76562 0.23438 0.35938 0.125 0.75 0.21875 1.125 0.3125 0.21875 0.078125 0.4375 0.14062 0.6875 0.17188 0.0625 0.015625 0.14062 0.03125 0.20312 0.046875 0.375 0.09375 0.76562 0.1875 1.125 0.26562 0.28125 0.0625 0.5625 0.09375 0.84375 0.14062 0.54688 0.10938 1.0938 0.20312 1.6562 0.28125 0.375 0.046875 0.73438 0.10938 1.1094 0.14062 1.375 0.15625 2.75 0.25 4.125 0.28125h1.2812c1.3594-0.03125 2.7031-0.10938 4.0469-0.26562 0.35938-0.046875 0.73438-0.09375 1.0938-0.14062 0.5625-0.078125 1.125-0.1875 1.6875-0.29688 0.26562-0.046875 0.53125-0.078125 0.79688-0.14062 0.375-0.078125 0.76562-0.15625 1.1406-0.26562 0.0625 0 0.14062-0.03125 0.20312-0.046875 0.25-0.046875 0.46875-0.10938 0.6875-0.17188 0.375-0.09375 0.76562-0.20312 1.125-0.3125 0.26562-0.0625 0.51562-0.14062 0.67188-0.20312 0.5625-0.17188 1.125-0.375 1.7031-0.57812h0.03125c0.76562 4.2031 1.1875 8.6406 1.2656 13.281h-30.266c0.078125-4.6406 0.5-9.0781 1.2656-13.281zm5.6406 29.594c-0.17188-0.57812-0.25-1.25-0.25-1.9688 0-4.6562 3.7969-8.4531 8.4688-8.4531s8.4688 3.7969 8.4688 8.4531c0 0.73438-0.078125 1.3906-0.26562 2.0312-0.92188 3.7656-4.2969 6.4062-8.2031 6.4062s-7.2812-2.625-8.2188-6.4688zm26.328 3.3125c0.51562-2.1406 2.4219-3.6406 4.6406-3.6406 2.6406 0 4.7969 2.1406 4.7969 4.7812 0 1.5312-0.75 2.9844-2 3.875-0.8125 0.59375-1.7812 0.90625-2.7969 0.90625-2.6406 0-4.7812-2.1406-4.7812-4.7812 0-0.39062 0.046875-0.78125 0.14062-1.1406zm11.969 4.125c0.046875-0.10938 0.09375-0.21875 0.125-0.32812 0.0625-0.17188 0.10938-0.35938 0.15625-0.53125l0.09375-0.32812c0.046875-0.20312 0.078125-0.39062 0.10938-0.59375 0-0.09375 0.03125-0.1875 0.046875-0.29688 0.03125-0.29688 0.0625-0.60938 0.0625-0.90625 0-4.3594-3.5469-7.9062-7.9219-7.9062-0.42188 0-0.84375 0.046875-1.25 0.10938-0.125 0.015625-0.25 0.046875-0.375 0.078125-0.28125 0.0625-0.54688 0.125-0.8125 0.20312-0.14062 0.046875-0.28125 0.09375-0.42188 0.15625-0.25 0.09375-0.48438 0.20312-0.70312 0.3125-0.125 0.0625-0.26562 0.125-0.39062 0.20312-0.23438 0.14062-0.45312 0.28125-0.67188 0.45312-0.10938 0.078125-0.21875 0.14062-0.3125 0.21875-0.1875 0.14062-0.35938 0.3125-0.51562 0.46875 0.59375-3.8125 0.90625-7.8125 0.98438-11.953h19.172c-0.3125 7.625-2.9219 14.906-7.5 20.969 0.046875-0.10938 0.09375-0.23438 0.14062-0.34375zm-3.7344-48.578-0.09375 0.09375c-0.26562 0.26562-0.53125 0.51562-0.8125 0.76562-0.15625 0.14062-0.3125 0.29688-0.5 0.45312-0.70312 0.64062-1.4531 1.25-2.2188 1.8438-0.015625 0.015625-0.046875 0.03125-0.0625 0.046875-0.78125 0.59375-1.5781 1.1562-2.4219 1.6875-0.28125 0.17188-0.54688 0.35938-0.90625 0.5625-0.6875 0.4375-1.3906 0.84375-2.1875 1.2188-0.20312 0.10938-0.40625 0.21875-0.60938 0.29688-0.0625 0.03125-0.20312 0.10938-0.26562 0.15625-0.03125 0-0.0625 0.03125-0.09375 0.046875-1.8281-7.7812-4.6875-13.797-8.1406-17.438 6.9375 1.5 13.281 4.9688 18.438 10.125-0.046875 0.03125-0.078125 0.078125-0.10938 0.125zm-13.094 8.4375-0.46875 0.1875c-0.51562 0.1875-1.0469 0.35938-1.6719 0.5625-0.125 0.046875-0.25 0.09375-0.39062 0.125-0.0625 0-0.10938 0.03125-0.15625 0.046875-0.32812 0.10938-0.6875 0.20312-1.0469 0.29688-0.078125 0.015625-0.15625 0.046875-0.21875 0.078125-0.078125 0.03125-0.15625 0.046875-0.25 0.0625-0.078125 0-0.14062 0.03125-0.21875 0.046875h-0.046875c-0.35938 0.09375-0.71875 0.1875-1.0938 0.26562-0.89062 0.1875-1.7969 0.34375-2.6875 0.46875-0.10938 0-0.21875 0.03125-0.32812 0.046875-0.875 0.10938-1.7656 0.1875-2.6562 0.23438-0.4375 0.03125-0.89062 0.03125-1.3438 0.046875-0.21875 0-0.4375 0.015625-0.65625 0.015625h-0.59375c-0.48438 0-0.95312-0.015625-1.4375-0.046875-0.875-0.046875-1.75-0.125-2.625-0.23438-0.10938 0-0.23438-0.03125-0.34375-0.046875-0.89062-0.125-1.7969-0.26562-2.7031-0.46875-0.35938-0.0625-0.71875-0.15625-1.0781-0.25h-0.046875c-0.078125-0.015625-0.14062-0.03125-0.21875-0.046875-0.09375 0-0.17188-0.03125-0.25-0.0625s-0.14062-0.046875-0.21875-0.078125c-0.34375-0.078125-0.70312-0.1875-1.0469-0.29688-0.046875-0.015625-0.10938-0.03125-0.15625-0.046875-0.14062-0.03125-0.26562-0.0625-0.48438-0.15625-0.53125-0.17188-1.0625-0.34375-1.5469-0.51562-0.17188-0.0625-0.32812-0.125-0.48438-0.20312 2.7031-11.906 7.8281-19.547 13.25-19.547s10.547 7.6406 13.25 19.547zm-29.406-1.25s-0.125-0.0625-0.17188-0.078125c-0.0625-0.046875-0.125-0.078125-0.20312-0.10938-0.20312-0.09375-0.40625-0.1875-0.6875-0.34375-0.70312-0.34375-1.4062-0.73438-2.1562-1.2188-0.29688-0.17188-0.5625-0.34375-0.89062-0.5625-0.8125-0.51562-1.6094-1.0781-2.3906-1.6719-0.015625-0.015625-0.046875-0.03125-0.0625-0.046875-0.76562-0.59375-1.5312-1.2188-2.2656-1.8906-0.20312-0.15625-0.39062-0.34375-0.57812-0.54688-0.03125-0.046875-0.078125-0.078125-0.125-0.10938s-0.078125-0.078125-0.125-0.10938c-0.10938-0.10938-0.23438-0.21875-0.34375-0.32812l-0.17188-0.17188c-0.046875-0.03125-0.078125-0.078125-0.10938-0.125 5.1562-5.1562 11.5-8.6094 18.438-10.125-3.4531 3.6406-6.2969 9.6562-8.1406 17.422zm-2.1094 20.766c0.0625 4.125 0.39062 8.1406 0.98438 11.953-0.17188-0.17188-0.34375-0.32812-0.53125-0.48438-0.078125-0.0625-0.17188-0.125-0.26562-0.1875-0.23438-0.17188-0.46875-0.32812-0.71875-0.48438-0.125-0.0625-0.25-0.125-0.375-0.20312-0.23438-0.125-0.48438-0.23438-0.71875-0.32812-0.14062-0.046875-0.26562-0.10938-0.40625-0.15625-0.26562-0.078125-0.53125-0.15625-0.8125-0.20312-0.125-0.03125-0.25-0.0625-0.375-0.078125-0.40625-0.0625-0.82812-0.10938-1.25-0.10938-4.375 0-7.9219 3.5469-7.9219 7.9062 0 0.3125 0.015625 0.60938 0.0625 0.90625 0 0.09375 0.03125 0.20312 0.046875 0.29688 0.03125 0.20312 0.0625 0.39062 0.10938 0.59375 0.03125 0.10938 0.0625 0.23438 0.09375 0.34375 0.046875 0.17188 0.09375 0.34375 0.15625 0.51562 0.046875 0.125 0.09375 0.23438 0.14062 0.34375s0.078125 0.21875 0.14062 0.32812c-4.5938-6.0625-7.1875-13.344-7.5-20.969h19.172zm-10.312 44.594c-0.78125 0-1.4844-0.3125-2-0.89062-0.51562-0.5625-0.73438-1.2969-0.65625-2.0625l0.65625-5.9219c0.32812-3.0156 2.3906-5.5938 5.25-6.5781 0.375-0.125 0.75-0.21875 1.125-0.29688 0.17188-0.03125 0.34375-0.046875 0.5-0.0625 0.20312-0.03125 0.40625-0.046875 0.60938-0.046875h0.64062c0.1875 0 0.375 0.03125 0.5625 0.046875 0.42188 0.046875 0.82812 0.125 1.2344 0.25 0.15625 0.046875 0.3125 0.078125 0.46875 0.125 0.20312 0.078125 0.40625 0.15625 0.59375 0.25 0.20312 0.09375 0.42188 0.1875 0.60938 0.3125 0.15625 0.078125 0.29688 0.17188 0.4375 0.26562 0.34375 0.21875 0.6875 0.46875 1.0156 0.75 0.3125 0.28125 0.59375 0.57812 0.84375 0.89062 0.09375 0.10938 0.15625 0.23438 0.23438 0.34375 0.15625 0.21875 0.3125 0.4375 0.45312 0.67188 0.078125 0.14062 0.14062 0.28125 0.21875 0.4375 0.10938 0.21875 0.21875 0.45312 0.3125 0.67188 0.0625 0.15625 0.10938 0.32812 0.15625 0.48438 0.046875 0.17188 0.09375 0.32812 0.14062 0.5 0 0.03125-0.015625 0.0625-0.03125 0.09375-0.29688 0.6875-0.53125 1.3906-0.73438 2.1094 0 0.046875-0.015625 0.078125-0.03125 0.125-0.1875 0.75-0.34375 1.5-0.42188 2.2812l-0.57812 5.2656h-11.641zm41.594 8.3906c-0.96875 1.0781-2.3594 1.7031-3.8125 1.7031h-18.406c-1.4531 0-2.8594-0.625-3.8125-1.7031-0.96875-1.0938-1.4219-2.5-1.25-3.9688l0.3125-2.8906v-0.03125l0.70312-6.4219c0.15625-1.375 0.51562-2.7188 1.0938-3.9688 0.03125-0.078125 0.046875-0.10938 0.078125-0.1875 0.76562-1.6562 1.8906-3.1562 3.2656-4.3438 2.4375-2.1719 5.5781-3.3594 8.8281-3.3594 0.40625 0 0.8125 0.015625 1.2188 0.0625 2.8125 0.25 5.4844 1.4062 7.5938 3.2969 0.03125 0.03125 0.0625 0.0625 0.10938 0.09375 1.3438 1.2188 2.4062 2.6406 3.1562 4.2656v0.015625c0.015625 0.0625 0.03125 0.10938 0.0625 0.17188 0.57812 1.2656 0.9375 2.5938 1.0938 3.9844l0.70312 6.4219v0.046875l0.3125 2.8906c0.17188 1.4531-0.28125 2.8594-1.25 3.9531zm17.562-9.2812c-0.51562 0.57812-1.2188 0.89062-2 0.89062h-11.641l-0.57812-5.2656c-0.078125-0.78125-0.23438-1.5312-0.42188-2.2812 0-0.03125-0.015625-0.078125-0.03125-0.10938-0.1875-0.71875-0.4375-1.4219-0.73438-2.1094 0-0.03125-0.015625-0.0625-0.03125-0.09375 0.046875-0.17188 0.09375-0.35938 0.14062-0.53125 0.0625-0.20312 0.125-0.40625 0.20312-0.59375 0.09375-0.21875 0.20312-0.4375 0.3125-0.64062 0.09375-0.1875 0.1875-0.375 0.29688-0.54688 0.125-0.20312 0.26562-0.39062 0.42188-0.57812 0.125-0.15625 0.23438-0.32812 0.375-0.46875 0.15625-0.1875 0.34375-0.34375 0.51562-0.5 0.14062-0.14062 0.28125-0.28125 0.42188-0.40625 0.1875-0.15625 0.40625-0.28125 0.60938-0.42188 0.15625-0.10938 0.3125-0.21875 0.46875-0.3125 0.23438-0.125 0.46875-0.23438 0.71875-0.32812 0.15625-0.078125 0.3125-0.15625 0.48438-0.21875 0.28125-0.09375 0.5625-0.15625 0.85938-0.23438 0.14062-0.03125 0.28125-0.09375 0.4375-0.10938 0.4375-0.078125 0.90625-0.125 1.3594-0.125 0.875 0 1.75 0.14062 2.5781 0.4375 1 0.35938 1.9062 0.89062 2.6719 1.5781 1.4375 1.2969 2.3594 3.0625 2.5625 5l0.65625 5.9219c0.078125 0.76562-0.14062 1.5-0.65625 2.0625z"/>
<text x="0.0" y="117.5" font-size="5.0" font-weight="bold" font-family="Arbeit Regular, Helvetica, Arial-Unicode, Arial, Sans-serif" fill="#000000">Created by Hardini Dwi Lestari</text><text x="0.0" y="122.5" font-size="5.0" font-weight="bold" font-family="Arbeit Regular, Helvetica, Arial-Unicode, Arial, Sans-serif" fill="#000000">from Noun Project</text></svg>