<svg xmlns="http://www.w3.org/2000/svg" version="1.1" viewBox="-5.0 -10.0 110.0 135.0">
 <path d="m90.891 71.594-21.855 12.621c-1.7812 1.0273-3.6484 1.543-5.5742 1.543-0.99219 0-2.0039-0.13672-3.0273-0.41016l-22.422-6.0078-3.8594 2.2305c-0.60156 0.34766-1.375 0.14063-1.7227-0.46094-0.34766-0.60156-0.14063-1.375 0.46094-1.7227l4.3125-2.4883c0.28906-0.16797 0.63281-0.21094 0.95703-0.125l22.926 6.1445c2.375 0.63672 4.5586 0.34766 6.6875-0.87891l21.855-12.617c1.8984-1.0938 2.5508-3.5312 1.4531-5.4258-1.0977-1.8984-3.5312-2.5508-5.4258-1.4531l-13.453 7.7656c-2.1562 1.2461-4.4727 1.5508-6.8789 0.90625l-4.8398-1.2969-13.461-3.6055c-0.67188-0.17969-1.0742-0.87109-0.89453-1.5469 0.17969-0.67188 0.87109-1.0703 1.5469-0.89453l13.461 3.6055c1.6484 0.44141 2.6953-0.16797 3.2852-0.75781 0.94141-0.94141 1.3438-2.4414 0.99609-3.7266-0.21484-0.80469-0.82031-1.8594-2.4648-2.3008l-19.074-5.1094c-1.7617-0.47266-3.3867-0.25781-4.9648 0.65234l-14.547 8.3984c-0.60547 0.34766-1.375 0.14063-1.7227-0.46094-0.34766-0.60156-0.14062-1.375 0.46094-1.7227l14.547-8.3984c2.1562-1.2461 4.4727-1.5508 6.8789-0.90625l19.074 5.1094c2.1602 0.57812 3.7109 2.0703 4.2539 4.0859 0.57812 2.1641-0.070313 4.582-1.6523 6.1641-0.089843 0.089844-0.17969 0.17578-0.27734 0.25781l0.042968 0.011719c1.7617 0.47266 3.3867 0.25781 4.9648-0.65234l13.453-7.7656c3.1016-1.7891 7.082-0.72266 8.875 2.3789 1.7891 3.1016 0.72266 7.082-2.3789 8.875zm-58.398 13.23c0.58594 1.0156 0.74219 2.2031 0.4375 3.3438-0.30469 1.1406-1.0352 2.0898-2.0508 2.6758l-5.3711 3.1016c-0.69141 0.39844-1.4492 0.58984-2.1953 0.58984-1.5234 0-3.0078-0.78906-3.8242-2.2031l-13.039-22.582c-1.2148-2.1055-0.49219-4.8047 1.6133-6.0195l5.3711-3.1016c1.0156-0.58594 2.2031-0.74219 3.3438-0.4375 1.1406 0.30469 2.0898 1.0352 2.6758 2.0508zm-2.1875 1.2617-13.039-22.582c-0.25-0.43359-0.65625-0.74219-1.1445-0.875-0.48828-0.12891-0.99609-0.066406-1.4258 0.18359l-5.3711 3.1016c-0.89844 0.51953-1.207 1.6719-0.69141 2.5742l13.039 22.582c0.51953 0.89844 1.6719 1.207 2.5742 0.6875l5.3711-3.1016c0.43359-0.25 0.74219-0.65625 0.875-1.1445 0.12891-0.48828 0.066406-0.99609-0.18359-1.4258zm-14.887-18.34c-0.34766-0.60547-1.1211-0.80859-1.7227-0.46094-0.60547 0.34766-0.80859 1.1211-0.46094 1.7227l1.3711 2.375c0.23438 0.40625 0.65625 0.63281 1.0938 0.63281 0.21484 0 0.42969-0.054687 0.62891-0.16797 0.60547-0.34766 0.80859-1.1211 0.46094-1.7227l-1.3711-2.375zm48.219-29.559c1.3125 0 2.3828 1.0703 2.3828 2.3828v11.145c0 1.3125-1.0703 2.3828-2.3828 2.3828h-5.2422c-1.3125 0-2.3828-1.0703-2.3828-2.3828v-11.145c0-1.3125 1.0703-2.3828 2.3828-2.3828zm-0.14062 2.5234h-4.9609v10.859h4.9609zm12.82-10.637c1.3125 0 2.3828 1.0703 2.3828 2.3828v19.258c0 1.3125-1.0703 2.3828-2.3828 2.3828h-5.2422c-1.3125 0-2.3828-1.0703-2.3828-2.3828v-19.258c0-1.3125 1.0703-2.3828 2.3828-2.3828zm-0.14062 2.5234h-4.9609v18.973h4.9609zm7.5781-14.625h5.2422c1.3125 0 2.3828 1.0703 2.3828 2.3828v31.359c0 1.3125-1.0703 2.3828-2.3828 2.3828h-5.2422c-1.3125 0-2.3828-1.0703-2.3828-2.3828v-31.363c0-1.3125 1.0703-2.3828 2.3828-2.3828zm0.14062 33.602h4.9609v-31.078h-4.9609zm-69.801-31.875c0-7.1133 5.7852-12.898 12.898-12.898 7.1133 0 12.898 5.7852 12.898 12.898s-5.7852 12.898-12.898 12.898c-7.1133 0-12.898-5.7852-12.898-12.898zm2.5234 0c0 5.7188 4.6523 10.375 10.375 10.375 5.7188 0 10.375-4.6523 10.375-10.375 0-5.7188-4.6523-10.375-10.375-10.375-5.7188 0-10.375 4.6523-10.375 10.375zm10.375 3.7852c-1.1953 0-2.0859-0.66797-2.0859-1.2656 0-0.69531-0.56641-1.2617-1.2617-1.2617-0.69531 0-1.2617 0.56641-1.2617 1.2617 0 1.7656 1.3945 3.2109 3.3477 3.6484v0.88672c0 0.69531 0.56641 1.2617 1.2617 1.2617 0.69531 0 1.2617-0.56641 1.2617-1.2617v-0.88672c1.9531-0.44141 3.3477-1.8867 3.3477-3.6484 0-2.125-2.0234-3.7891-4.6094-3.7891-1.1953 0-2.0859-0.66797-2.0859-1.2656 0-0.59766 0.89062-1.2656 2.0859-1.2656 1.1953 0 2.0859 0.66797 2.0859 1.2656 0 0.69531 0.56641 1.2617 1.2617 1.2617 0.69531 0 1.2617-0.56641 1.2617-1.2617 0-1.7656-1.3945-3.2109-3.3477-3.6484v-0.75c0-0.69531-0.56641-1.2617-1.2617-1.2617-0.69531 0-1.2617 0.56641-1.2617 1.2617v0.75c-1.9531 0.44141-3.3477 1.8867-3.3477 3.6484 0 2.125 2.0234 3.7891 4.6094 3.7891 1.1953 0 2.0859 0.66797 2.0859 1.2656s-0.89062 1.2656-2.0859 1.2656zm-17.062 23.359c-0.17188-0.64062 0.17969-1.3047 0.80859-1.5195 20.172-6.9336 39.984-18.035 57.371-32.141l-1.7227-2.5625c-0.23438-0.35156-0.28125-0.79297-0.12109-1.1836s0.50391-0.67188 0.91797-0.75781l15.852-3.1875c0.48047-0.097657 0.96875 0.09375 1.2617 0.48437 0.29297 0.39063 0.33203 0.91406 0.10547 1.3477l-7.9336 14.98c-0.20703 0.39062-0.60547 0.64844-1.0508 0.66797-0.44531 0.023438-0.86719-0.1875-1.1133-0.55859l-1.2891-1.9219c-19.191 13.691-40.473 23.105-61.625 27.262-0.082031 0.015625-0.16406 0.023438-0.24219 0.023438-0.55859 0-1.0664-0.375-1.2188-0.93359zm20.824-7.0195c14.469-5.1016 28.664-12.594 41.84-22.141 0.27734-0.19922 0.625-0.28125 0.96094-0.21875 0.33594 0.058594 0.63672 0.25391 0.82812 0.53906l0.83984 1.2539 5.6992-10.766-11.391 2.2891 1.3086 1.9492c0.36328 0.53906 0.25391 1.2656-0.24609 1.6797-12.289 10.094-25.812 18.699-39.84 25.414z"/>
<text x="0.0" y="117.5" font-size="5.0" font-weight="bold" font-family="Arbeit Regular, Helvetica, Arial-Unicode, Arial, Sans-serif" fill="#000000">Created by gibranicon</text><text x="0.0" y="122.5" font-size="5.0" font-weight="bold" font-family="Arbeit Regular, Helvetica, Arial-Unicode, Arial, Sans-serif" fill="#000000">from Noun Project</text></svg>