<svg xmlns="http://www.w3.org/2000/svg" version="1.1" viewBox="-5.0 -10.0 110.0 135.0">
 <path d="m96.094 81.203-2.5312-11.102c-0.65234-2.8672-2.3984-5.0508-5.0508-6.3281l-3.2969-1.582c1.5391-1.7656 2.4805-4.0625 2.4805-6.582 0-5.5117-4.4883-10-10-10-1.7344 0-3.3555 0.4375-4.7852 1.2227-1.7656-1.5938-3.5117-3.1445-5.0703-4.5312-0.31641-0.27734-0.62109-0.55078-0.91797-0.81641 2.3164-3.3984 3.5391-7.3477 3.5391-11.5 0-11.285-9.1719-20.461-20.461-20.461-11.285 0-20.461 9.1719-20.461 20.461 0 11.293 9.1758 20.445 20.461 20.445 4.1523 0 8.1016-1.2227 11.5-3.5391 0.27734 0.30469 0.55078 0.62109 0.83594 0.9375 1.6836 1.8867 3.5703 4.0117 5.4883 6.1328-0.09375 0.53125-0.13281 1.082-0.13281 1.6445 0 2.5195 0.9375 4.8164 2.4805 6.582l-3.2969 1.582c-2.6523 1.2773-4.3984 3.4609-5.0508 6.3281l-0.39844 1.7227c-0.20312-0.11328-0.40625-0.22266-0.62109-0.32812l-3.2969-1.582c1.5391-1.7656 2.4805-4.0625 2.4805-6.582 0-5.5117-4.4883-10-10-10s-10 4.4883-10 10c0 2.5195 0.9375 4.8164 2.4805 6.582l-3.2969 1.582c-0.21484 0.10156-0.41797 0.21484-0.62109 0.32812l-0.38672-1.7188c-0.65234-2.8672-2.3984-5.0508-5.0508-6.3281l-3.2969-1.582c1.5391-1.7656 2.4805-4.0625 2.4805-6.582 0-5.5117-4.4883-10-10-10s-10 4.4883-10 10c0 2.5195 0.9375 4.8164 2.4805 6.582l-3.2969 1.582c-2.6523 1.2773-4.3984 3.4609-5.0508 6.3281l-2.5234 11.102c-0.082031 0.37891 0 0.77734 0.24609 1.0703 0.24609 0.30469 0.60156 0.48047 0.98828 0.48047h27.867l-1.4062 6.1719c-0.082031 0.37891 0 0.77734 0.24609 1.0703 0.24609 0.30469 0.60156 0.48047 0.98828 0.48047h34.316c0.38672 0 0.75391-0.17187 0.98828-0.48047 0.24609-0.30469 0.32812-0.69531 0.24609-1.0703l-1.4062-6.1719h27.867c0.38672 0 0.75391-0.17188 0.98828-0.48047 0.25781-0.29297 0.33594-0.69141 0.25781-1.0703zm-10.93-25.602c0 4.1133-3.3477 7.4688-7.4688 7.4688-4.1133 0-7.4688-3.3477-7.4688-7.4688 0-4.1211 3.3477-7.4688 7.4688-7.4688 4.1094 0.011719 7.4688 3.3555 7.4688 7.4688zm-20.93-9.457c-0.55078-0.62109-1.082-1.2148-1.5938-1.7969-0.4375-0.5-1.1953-0.57031-1.7227-0.16406-3.1523 2.4297-6.9297 3.7031-10.918 3.7031-9.8789 0-17.918-8.0391-17.918-17.918 0-9.875 8.0391-17.918 17.918-17.918s17.918 8.0391 17.918 17.918c0 3.9883-1.2852 7.7656-3.7031 10.918-0.40625 0.53125-0.33594 1.2773 0.16406 1.7227 0.57031 0.51172 1.1641 1.0391 1.7773 1.582 1.4375 1.2852 3.0391 2.7031 4.6641 4.1641-0.84766 0.80469-1.5625 1.7656-2.0938 2.8281-1.5742-1.7539-3.1055-3.4805-4.4922-5.0391zm-14.234 9.7227c4.1133 0 7.4688 3.3477 7.4688 7.4688 0 4.1133-3.3477 7.4688-7.4688 7.4688-4.1133 0-7.4688-3.3477-7.4688-7.4688 0-4.1211 3.3555-7.4688 7.4688-7.4688zm-27.695-7.7227c4.1133 0 7.4688 3.3477 7.4688 7.4688 0 4.1211-3.3477 7.4688-7.4688 7.4688-4.1211 0-7.4688-3.3477-7.4688-7.4688 0-4.125 3.3594-7.4688 7.4688-7.4688zm-15.57 32.078 2.1836-9.5508c0.48047-2.082 1.7461-3.6836 3.6719-4.6133l4.2773-2.0625c1.5625 1.0195 3.4297 1.6133 5.4297 1.6133s3.8672-0.59375 5.4297-1.6133l4.2773 2.0625c1.9297 0.92969 3.1953 2.5195 3.6719 4.6133l0.66406 2.8984c-1.082 1.1641-1.8359 2.6016-2.2148 4.2656l-0.53906 2.3867zm27.695 7.7266 2.1836-9.5508c0.48047-2.082 1.7461-3.6836 3.6719-4.6133l4.2773-2.0625c1.5625 1.0195 3.4297 1.6133 5.4297 1.6133s3.8672-0.59375 5.4297-1.6133l4.2773 2.0625c1.9297 0.92969 3.2031 2.5195 3.6719 4.6133l2.1836 9.5508zm31.977-7.7266-0.53906-2.3867c-0.37891-1.6641-1.1328-3.1016-2.2148-4.2656l0.66406-2.8984c0.48047-2.082 1.7461-3.6836 3.6719-4.6133l4.2773-2.0625c1.5625 1.0195 3.4297 1.6133 5.4297 1.6133s3.8672-0.59375 5.4297-1.6133l4.2773 2.0625c1.9297 0.92969 3.2031 2.5195 3.6719 4.6133l2.1836 9.5508zm-16.406-65.723c-8.5312 0-15.48 6.9375-15.48 15.48 0 8.5391 6.9492 15.469 15.48 15.469s15.48-6.9375 15.48-15.48c0-8.5391-6.9492-15.469-15.48-15.469zm-10.316 17.223-2.3984-1.7539 2.3984-1.7539c0.48828-0.35547 1.0195-0.69531 1.5703-0.98828-0.27734 0.87891-0.41797 1.8047-0.41797 2.7461 0 0.9375 0.14453 1.8672 0.41797 2.7461-0.55078-0.30078-1.082-0.625-1.5703-0.99609zm5.1445 2.4102c-0.94922-1.1719-1.4688-2.6445-1.4688-4.1523 0-1.5195 0.51953-2.9805 1.4688-4.1523 0.87891-0.23438 1.7773-0.40625 2.6836-0.51953-1.6719 0.88672-2.8164 2.6523-2.8164 4.6719s1.1445 3.7852 2.8164 4.6719c-0.91016-0.11328-1.8086-0.28516-2.6836-0.51953zm5.1719-1.3984c-1.5195 0-2.7656-1.2344-2.7656-2.7656s1.2344-2.7656 2.7656-2.7656c1.5195 0 2.7656 1.2344 2.7656 2.7656s-1.2461 2.7656-2.7656 2.7656zm5.2969-2.7656c0-2.0195-1.1445-3.7852-2.8164-4.6719 0.91797 0.11328 1.8164 0.28516 2.6836 0.51953 0.94922 1.1719 1.4688 2.6445 1.4688 4.1523 0 1.5195-0.51953 2.9805-1.4688 4.1523-0.87891 0.23438-1.7773 0.40625-2.6836 0.51953 1.6719-0.88672 2.8164-2.6406 2.8164-4.6719zm3.457-2.7461c0.55078 0.29688 1.0703 0.62109 1.5703 0.98828l2.3984 1.7539-2.3984 1.7539c-0.48828 0.35547-1.0195 0.69531-1.5703 0.98828 0.27734-0.87891 0.41797-1.8047 0.41797-2.7461 0-0.92969-0.14062-1.8477-0.41797-2.7383zm-15.742-3.5195c2.1133-1.3672 4.5-2.1016 6.9883-2.1016s4.8789 0.73438 6.9883 2.1016c-4.418-1.4883-9.5586-1.4883-13.977 0zm6.9883 13.652c2.3867 0 4.7773-0.37891 6.9883-1.1211-2.1133 1.3672-4.5 2.1016-6.9883 2.1016s-4.8789-0.73438-6.9883-2.1016c2.2109 0.74609 4.6016 1.1211 6.9883 1.1211zm0-20.324c5.1211 0 9.5625 2.9883 11.652 7.3164-3.1445-3.418-7.2656-5.2852-11.652-5.2852s-8.5117 1.8789-11.652 5.2852c2.0898-4.3281 6.5312-7.3164 11.652-7.3164zm0 25.875c-5.1211 0-9.5625-2.9883-11.652-7.3164 3.1445 3.418 7.2656 5.2852 11.652 5.2852s8.5117-1.8789 11.652-5.2852c-2.0898 4.3281-6.5312 7.3164-11.652 7.3164z"/>
<text x="0.0" y="117.5" font-size="5.0" font-weight="bold" font-family="Arbeit Regular, Helvetica, Arial-Unicode, Arial, Sans-serif" fill="#000000">Created by my</text><text x="0.0" y="122.5" font-size="5.0" font-weight="bold" font-family="Arbeit Regular, Helvetica, Arial-Unicode, Arial, Sans-serif" fill="#000000">from Noun Project</text></svg>